P2
51 51
255
159 156 153 158 170 152 99 102 105 106 110 121 127 130 129 130 132 133 131 132 132 130 130 130 132 132 129 128 128 127 123 110 126 154 153 153 153 152 154 154 187 213 125 116 120 121 123 123 124 122 122 
155 155 154 163 166 146 97 99 105 102 109 120 125 128 130 129 131 132 131 131 131 130 129 129 132 130 129 128 127 128 124 113 111 146 158 159 158 155 153 151 157 210 182 109 118 120 122 124 128 99 49 
156 157 158 165 160 146 96 99 104 102 109 119 125 127 128 129 129 130 129 131 127 126 127 126 130 130 128 127 126 126 124 116 108 138 159 160 159 156 154 152 148 179 216 139 115 121 121 129 98 48 49 
158 161 166 163 158 147 94 99 104 102 108 118 122 126 126 127 128 129 128 129 124 122 124 122 127 130 127 127 125 125 125 116 110 133 153 157 157 155 155 154 150 148 206 203 113 118 125 96 47 51 50 
160 165 156 158 159 146 93 98 103 102 109 118 122 124 125 127 126 129 127 128 130 134 145 143 131 123 125 128 126 126 123 116 110 129 146 153 154 153 153 151 146 142 170 219 158 112 94 46 53 52 46 
162 160 134 157 162 148 91 95 101 102 110 119 123 124 127 127 127 131 130 143 147 160 173 174 183 177 138 122 125 123 120 114 108 129 144 147 152 149 148 144 140 140 141 200 217 107 44 49 51 48 45 
167 136 110 160 164 148 87 90 97 100 106 115 119 122 124 129 126 124 127 131 140 151 166 178 184 189 195 162 116 116 116 110 104 130 147 144 145 147 142 143 141 141 142 159 206 63 46 53 47 47 48 
158 99 107 160 164 145 85 91 99 99 105 113 117 120 123 122 112 120 126 132 134 143 161 177 186 191 194 195 186 128 106 105 102 131 153 146 125 139 144 144 142 143 146 148 72 45 50 48 51 56 63 
126 85 110 159 165 143 86 91 98 101 105 113 118 121 121 109 116 119 121 131 134 140 157 179 183 187 199 208 209 211 105 97 97 129 153 149 101 103 144 144 143 144 148 91 43 52 48 49 55 76 136 
93 89 108 157 165 143 86 93 98 99 105 114 118 122 112 112 116 115 127 135 141 140 154 166 188 203 202 202 205 212 189 94 89 129 154 151 102 61 130 145 142 145 125 46 52 48 51 50 73 132 149 
89 90 108 156 164 144 87 90 98 99 104 114 117 122 109 112 115 125 135 137 136 131 154 189 192 193 199 202 206 206 210 199 81 126 153 151 103 43 85 139 140 144 59 47 53 50 50 55 123 144 162 
90 88 106 156 163 146 86 88 96 99 105 111 137 113 108 112 120 131 133 133 124 157 182 184 185 195 197 200 201 203 207 214 146 120 151 152 104 44 67 182 199 126 46 54 53 51 50 101 144 158 158 
91 94 106 156 165 145 84 86 98 99 104 110 160 105 107 114 124 124 127 123 164 168 175 179 187 188 191 196 199 200 203 205 206 124 153 151 94 92 185 208 212 174 45 51 47 50 74 145 155 158 157 
98 98 109 156 167 150 87 90 100 100 106 108 167 103 104 114 120 123 124 152 154 169 177 179 176 179 187 192 196 184 197 200 200 195 151 150 162 196 206 202 210 167 47 50 47 47 130 152 158 156 154 
99 98 113 158 171 153 87 91 99 98 102 104 177 113 104 111 120 124 146 141 153 163 170 169 172 175 177 182 180 186 189 186 187 185 179 194 199 201 201 201 212 135 49 46 51 99 148 158 157 155 154 
97 96 111 160 172 153 88 91 98 98 101 113 180 135 107 110 119 140 134 146 147 156 162 168 170 168 167 173 179 182 177 172 175 187 194 199 198 199 201 172 194 83 48 46 62 141 155 159 158 157 156 
95 94 113 160 170 154 89 91 97 97 99 116 180 146 117 112 135 127 139 137 145 152 156 157 154 159 162 166 166 165 164 176 189 194 193 196 201 205 178 153 167 44 50 50 114 149 158 156 157 156 156 
97 98 118 161 172 156 87 90 97 97 97 117 192 156 133 122 123 136 130 134 142 135 115 107 142 130 131 121 100 156 178 193 193 192 198 201 203 189 119 131 118 46 48 65 144 156 158 155 155 154 153 
101 99 120 162 171 157 88 89 97 98 98 101 202 150 130 114 130 127 130 133 127 120 99 79 105 87 77 44 107 175 194 191 192 194 199 185 123 99 135 140 50 48 51 102 150 161 159 157 154 154 153 
104 100 118 160 170 157 88 89 96 98 98 92 183 171 134 124 123 125 126 127 101 73 57 76 73 84 68 120 175 181 183 184 190 181 128 119 146 167 141 48 53 47 58 139 159 163 161 158 155 154 152 
106 100 111 160 171 158 88 87 96 97 99 104 134 188 135 123 124 122 122 84 76 60 58 64 64 87 111 178 186 179 175 182 189 130 95 120 163 118 46 52 51 49 87 141 165 162 162 159 158 155 152 
105 100 105 159 172 159 88 86 97 97 101 110 101 207 130 116 123 117 87 57 74 59 76 47 53 96 157 181 169 172 176 193 196 175 76 98 128 44 51 57 46 52 118 148 164 162 162 161 159 157 153 
103 99 105 158 172 160 91 88 100 100 103 116 107 177 111 119 110 78 59 51 58 68 79 46 120 159 167 177 165 167 188 199 204 198 87 62 125 49 55 57 48 70 138 153 153 156 158 160 158 156 153 
102 97 103 158 174 160 92 91 101 102 106 115 115 135 121 124 69 59 57 57 55 61 70 107 160 180 168 164 161 174 191 199 205 209 120 48 122 52 59 54 49 107 149 161 157 154 148 148 149 151 151 
100 98 103 159 174 161 91 90 101 101 106 117 133 89 132 90 62 67 62 49 56 67 82 156 166 185 137 126 150 176 182 193 199 197 116 43 118 61 61 51 56 130 157 159 159 161 154 150 146 142 141 
101 99 100 158 175 162 93 90 101 98 103 128 151 100 86 78 73 60 55 62 50 61 148 186 167 112 97 97 98 139 171 192 157 87 83 51 112 69 58 50 78 139 158 155 154 156 153 153 154 147 137 
96 90 92 158 176 161 92 90 98 96 117 155 133 62 68 74 84 49 61 56 48 108 176 187 94 60 62 143 90 128 164 181 66 104 52 46 110 79 52 50 106 149 155 152 152 153 152 149 146 137 135 
100 90 88 158 179 165 98 97 111 81 126 142 70 75 62 89 99 49 49 45 66 155 184 131 133 113 125 169 135 124 168 170 123 123 61 50 108 88 49 55 129 154 152 151 152 151 147 141 138 151 174 
94 82 80 156 179 167 98 97 110 133 97 60 84 90 60 90 107 50 46 46 123 182 114 131 153 157 155 162 146 132 159 196 148 120 89 52 100 93 49 71 140 154 150 150 149 146 141 139 177 190 188 
83 75 75 156 178 166 97 97 124 108 75 75 103 62 48 78 73 91 44 80 164 110 103 131 152 172 176 171 150 135 150 201 157 133 96 57 88 97 49 95 149 154 150 149 146 143 135 177 194 192 196 
75 69 71 154 173 163 95 103 122 95 90 73 107 57 45 62 77 118 45 124 157 52 104 130 147 161 172 165 141 129 141 201 154 134 82 59 75 113 48 122 157 153 150 146 143 137 156 193 194 203 203 
78 66 65 153 174 165 94 108 111 86 81 86 108 61 46 77 99 66 84 151 60 64 100 128 141 152 159 157 129 131 134 203 148 130 60 63 60 131 56 142 156 150 150 147 143 137 187 194 203 205 206 
79 70 81 156 173 167 101 94 101 88 76 77 116 76 66 49 74 58 157 103 44 73 104 126 138 148 153 155 134 114 121 174 145 107 47 65 48 139 83 150 153 149 148 145 141 150 194 201 205 208 207 
75 70 98 159 172 168 98 93 104 78 68 74 95 114 84 57 120 132 118 48 55 79 108 126 136 142 150 154 149 153 182 177 140 70 52 72 51 123 118 151 152 148 146 144 138 164 197 206 206 209 209 
64 65 96 159 173 170 97 104 95 79 62 78 79 96 91 126 159 111 58 50 61 71 100 126 134 139 134 138 140 149 168 149 120 48 55 73 52 113 134 152 150 147 146 144 135 172 205 207 208 211 211 
57 62 102 161 177 169 114 103 95 61 66 101 92 89 109 160 131 82 48 51 62 62 88 119 127 139 133 114 123 139 148 135 73 47 55 76 59 107 148 154 151 148 146 144 132 183 210 209 210 212 210 
52 57 102 157 178 170 95 109 78 65 68 118 101 108 120 154 113 52 53 53 60 61 73 101 118 132 139 132 129 134 142 114 45 53 54 80 66 108 151 153 153 151 147 142 128 193 213 214 211 207 207 
48 62 109 153 175 168 95 96 78 51 62 102 113 104 113 126 53 53 52 51 52 56 60 69 99 127 138 148 160 165 151 67 48 56 58 86 72 109 152 154 151 150 146 139 124 201 214 212 211 207 204 
46 51 104 155 173 168 100 98 65 60 50 108 82 116 131 104 51 56 57 52 49 56 58 65 70 102 124 143 160 161 141 57 55 57 62 88 78 113 135 136 142 146 143 135 128 211 211 211 201 152 86 
69 51 77 149 171 168 122 81 57 59 67 93 93 114 107 110 105 59 58 50 50 52 57 66 114 127 134 142 145 155 186 183 122 56 60 86 78 118 126 120 113 112 119 121 132 208 207 202 134 54 73 
131 96 60 142 170 167 125 68 46 79 84 71 94 83 108 128 90 81 55 53 54 52 66 63 112 124 134 139 142 161 184 192 202 187 79 75 70 119 144 139 133 119 104 113 120 207 207 134 70 81 87 
123 146 71 143 174 167 139 46 56 55 65 59 71 69 94 131 112 103 52 56 55 53 83 68 113 128 138 139 147 161 173 183 195 206 199 70 62 126 146 143 140 134 125 128 162 212 189 83 92 103 94 
77 164 77 144 176 169 121 43 54 48 77 53 67 76 92 117 104 119 47 58 54 51 89 73 116 132 137 140 147 156 166 178 191 204 213 154 43 136 146 143 138 135 126 154 199 211 146 90 105 94 101 
59 163 76 143 177 172 109 51 45 57 80 54 48 62 91 114 122 117 59 57 53 57 110 84 119 134 136 138 144 152 162 174 188 202 211 213 53 144 145 142 137 129 131 207 211 200 108 98 105 97 99 
50 161 87 139 175 169 109 47 47 55 68 55 46 65 66 124 93 89 77 78 52 77 124 85 125 136 138 135 140 148 158 169 185 198 208 214 113 143 143 139 138 129 143 207 213 163 106 102 95 100 91 
44 153 99 136 175 170 117 48 57 51 59 54 53 64 79 105 93 84 53 52 52 100 121 87 134 140 139 136 138 146 154 163 178 194 205 211 171 131 135 142 140 134 140 172 211 135 98 90 96 93 92 
38 149 112 131 174 171 114 54 47 55 58 54 47 62 105 68 78 64 46 43 71 115 92 110 135 141 140 138 136 143 150 160 171 188 203 211 206 85 85 95 107 132 147 173 195 99 86 86 95 96 75 
66 149 132 129 174 174 107 49 50 51 57 59 47 52 78 120 81 46 42 50 98 105 76 131 137 139 142 140 137 139 146 154 166 181 198 208 214 115 100 83 56 64 182 194 135 67 81 96 87 99 63 
96 151 145 129 175 176 100 47 50 53 54 67 53 63 67 96 67 44 42 74 85 76 119 132 137 139 142 143 140 139 142 150 160 173 191 204 211 148 101 98 84 85 192 134 65 73 96 76 99 92 66 
69 133 155 128 176 176 82 48 55 59 59 66 81 70 72 99 65 45 50 75 102 121 127 130 136 138 141 144 143 142 142 147 156 169 184 198 209 181 89 105 108 110 116 89 80 93 78 84 111 77 57 
53 133 190 132 176 172 69 50 57 65 75 67 93 75 63 69 82 50 85 112 120 125 128 130 135 136 139 144 145 146 146 149 155 165 178 192 204 207 90 101 118 117 115 111 91 84 80 117 93 56 67 
